<svg width="144" height="49" viewBox="0 0 144 49" fill="none" xmlns="http://www.w3.org/2000/svg">
<path d="M19.9183 41.2849L5.93872 39.3562V37.5317L19.9183 39.4605V41.2849Z" fill="white"/>
<path d="M19.9183 44.2562L5.93872 42.3275V40.5552L19.9183 42.4839V44.2562Z" fill="white"/>
<path d="M19.9183 47.2274L5.93872 45.3508V43.5264L19.9183 45.4551V47.2274Z" fill="white"/>
<path d="M13.8219 0.469238H12.0876V5.8384H13.8219V0.469238Z" fill="white"/>
<path d="M10.8263 19.3913H4.72992V15.5859H21.127V19.3913H15.0832V36.1764H10.8263V19.3913Z" fill="white"/>
<path d="M28.8 14.752H32.8993V21.4764C33.7927 21.0594 35.1591 20.5903 36.5781 20.5903C40.2569 20.5903 43.3051 22.3105 43.3051 26.6371V36.1764H39.2058V26.8456C39.2058 24.2913 37.9971 23.5615 36.1577 23.5615C35.054 23.5615 33.9504 23.8743 32.8993 24.3435V36.1764H28.8V14.752Z" fill="white"/>
<path d="M54.762 26.8457C54.762 22.7276 58.0204 20.5903 62.0146 20.5903C66.0087 20.5903 69.2146 22.7797 69.2146 26.8457V36.1765H65.1153V27.002C65.1153 24.7084 63.9065 23.5616 62.0146 23.5616C60.1226 23.5616 58.8087 24.7084 58.8087 27.002V36.1765H54.7095V26.8457H54.762Z" fill="white"/>
<path d="M72.5256 14.752H76.6248V27.0541L79.0949 26.3764C79.9358 26.1158 80.3037 25.5424 80.619 24.6562L81.7227 21.0073H85.7694L84.3504 25.386C83.8774 26.9498 83.3518 28.0445 81.8803 28.6179L86.6102 36.1764H82.0905L78.3066 29.7126L76.6248 30.2339V36.1243H72.5256V14.752Z" fill="white"/>
<path d="M51.0832 20.9556H46.9839V36.1768H51.0832V20.9556Z" fill="white"/>
<path d="M51.2409 16.8373C51.2409 18.0362 50.2423 19.0267 49.0336 19.0267C47.8248 19.0267 46.8263 18.0362 46.8263 16.8373C46.8263 15.6384 47.8248 14.6479 49.0336 14.6479C50.2423 14.6479 51.2409 15.6384 51.2409 16.8373Z" fill="white"/>
<path d="M89.7635 16.3682H93.9679V33.1011H103.796L103.585 36.1767H89.7635V16.3682Z" fill="white"/>
<path d="M114.359 32.8925C115.883 33.3095 117.512 33.5701 119.089 33.5701C120.666 33.5701 121.769 32.8925 121.769 32.0063C121.769 29.1914 113.991 30.2339 113.991 25.0212C113.991 22.4669 116.461 20.5903 120.403 20.5903C122.032 20.5903 123.609 20.7988 125.238 21.268L124.345 24.135C123.031 23.7701 121.822 23.5095 120.403 23.5095C118.774 23.5095 118.196 24.135 118.196 24.9691C118.196 27.6276 125.974 26.4808 125.974 31.902C125.974 34.1957 123.766 36.4893 119.089 36.4893C117.197 36.4893 115.41 36.1765 113.518 35.6552L114.359 32.8925Z" fill="white"/>
<path d="M129.022 14.752H133.121V21.4764C134.015 21.0594 135.381 20.5903 136.8 20.5903C140.479 20.5903 143.527 22.3105 143.527 26.6371V36.1764H139.428V26.8456C139.428 24.2913 138.219 23.5615 136.38 23.5615C135.276 23.5615 134.172 23.8743 133.121 24.3435V36.1764H129.022V14.752Z" fill="white"/>
<path d="M110.628 20.9556H106.528V36.1768H110.628V20.9556Z" fill="white"/>
<path d="M110.838 16.8373C110.838 18.0362 109.839 19.0267 108.631 19.0267C107.422 19.0267 106.423 18.0362 106.423 16.8373C106.423 15.6384 107.422 14.6479 108.631 14.6479C109.839 14.6479 110.838 15.6384 110.838 16.8373Z" fill="white"/>
<path d="M25.1737 42.7445C25.1737 40.9721 26.435 40.0859 27.9591 40.0859C29.4832 40.0859 30.7445 40.9721 30.7445 42.7445V44.2561C30.7445 46.0285 29.4832 46.8625 27.9591 46.8625C26.435 46.8625 25.1737 46.0285 25.1737 44.2561V42.7445ZM27.9591 46.0806C28.9576 46.0806 29.6934 45.5072 29.6934 44.204V42.7966C29.6934 41.4934 28.9576 40.92 27.9591 40.92C26.9606 40.92 26.2248 41.4934 26.2248 42.7966V44.204C26.2248 45.5072 26.9606 46.0806 27.9591 46.0806Z" fill="white"/>
<path d="M32.689 43.6829C32.689 42.3797 33.6876 41.6499 34.8963 41.6499C36.1051 41.6499 37.1036 42.3797 37.1036 43.6829V46.7584H36.0525V43.735C36.0525 42.901 35.5795 42.4318 34.8438 42.4318C34.1606 42.4318 33.635 42.8488 33.635 43.735V46.7584H32.5839V43.6829H32.689Z" fill="white"/>
<path d="M39.2584 39.7734L40.2569 39.5649V46.7586H39.2584V39.7734Z" fill="white"/>
<path d="M45.5124 43.6829C45.5124 42.3797 46.5109 41.6499 47.7197 41.6499C48.9285 41.6499 49.927 42.3797 49.927 43.6829V46.7584H48.8759V43.735C48.8759 42.901 48.4029 42.4318 47.6672 42.4318C46.9839 42.4318 46.4584 42.8488 46.4584 43.735V46.7584H45.4073V43.6829H45.5124Z" fill="white"/>
<path d="M51.819 43.6829C51.819 42.3797 52.8175 41.6499 54.0263 41.6499C55.235 41.6499 56.2336 42.3797 56.2336 43.4744V44.5169H52.8175V44.8297C52.8175 45.7159 53.3431 46.1329 54.1839 46.1329C54.7095 46.1329 55.235 46.0286 55.7606 45.9244L55.9708 46.7063C55.3927 46.8627 54.8671 46.9669 54.2365 46.9669C52.8701 46.9669 51.8715 46.2371 51.8715 44.8818V43.6829H51.819ZM55.235 43.8393V43.5265C55.235 42.901 54.762 42.4839 54.0263 42.4839C53.343 42.4839 52.8175 42.901 52.8175 43.6829V43.8914H55.235V43.8393Z" fill="white"/>
<path d="M61.0161 39.7734L62.0671 39.5649V42.0149C62.3825 41.8586 62.8555 41.65 63.381 41.65C64.5372 41.65 65.5883 42.3277 65.5883 43.7352V44.7777C65.5883 46.133 64.5372 46.8628 63.3285 46.8628C62.1197 46.8628 61.0686 46.133 61.0686 44.7777V39.7734H61.0161ZM63.2759 46.133C63.9591 46.133 64.5372 45.716 64.5372 44.7777V43.7873C64.5372 42.7969 63.9591 42.432 63.2759 42.432C62.8555 42.432 62.435 42.5883 62.0146 42.7447V44.7256C62.0146 45.716 62.5927 46.133 63.2759 46.133Z" fill="white"/>
<path d="M67.4277 41.8066H68.4788V44.83C68.4788 45.6641 68.9518 46.1332 69.6876 46.1332C70.3708 46.1332 70.8963 45.7162 70.8963 44.83V41.8066H71.9474V44.8822C71.9474 46.1854 70.9489 46.9151 69.7402 46.9151C68.5314 46.9151 67.5329 46.1854 67.5329 44.8822V41.8066H67.4277Z" fill="white"/>
<path d="M73.7869 45.8721C74.3124 46.0285 74.7854 46.0806 75.2584 46.0806C75.8891 46.0806 76.3095 45.82 76.3095 45.403C76.3095 44.3083 73.7343 44.7253 73.7343 43.0051C73.7343 42.2232 74.4701 41.5977 75.6788 41.5977C76.2044 41.5977 76.6774 41.6498 77.1504 41.8062L76.9402 42.536C76.5197 42.4317 76.0993 42.3275 75.6788 42.3275C75.0482 42.3275 74.7854 42.5881 74.7854 42.953C74.7854 43.9434 77.3606 43.5264 77.3606 45.2987C77.3606 46.0285 76.6774 46.7583 75.2584 46.7583C74.6803 46.7583 74.1548 46.6541 73.5767 46.4977L73.7869 45.8721Z" fill="white"/>
<path d="M82.1956 43.6829C82.1956 42.3797 83.1942 41.6499 84.4029 41.6499C85.6117 41.6499 86.6102 42.3797 86.6102 43.6829V46.7584H85.5591V43.735C85.5591 42.901 85.0861 42.4318 84.3504 42.4318C83.6671 42.4318 83.1416 42.8488 83.1416 43.735V46.7584H82.0905V43.6829H82.1956Z" fill="white"/>
<path d="M88.5022 43.6829C88.5022 42.3797 89.5007 41.6499 90.7095 41.6499C91.9183 41.6499 92.9168 42.3797 92.9168 43.4744V44.5169H89.5007V44.8297C89.5007 45.7159 90.0263 46.1329 90.8672 46.1329C91.3927 46.1329 91.9183 46.0286 92.4438 45.9244L92.654 46.7063C92.0759 46.8627 91.5504 46.9669 90.9197 46.9669C89.5533 46.9669 88.5548 46.2371 88.5548 44.8818V43.6829H88.5022ZM91.9183 43.8393V43.5265C91.9183 42.901 91.4453 42.4839 90.7095 42.4839C90.0263 42.4839 89.5007 42.901 89.5007 43.6829V43.8914H91.9183V43.8393Z" fill="white"/>
<path d="M94.5986 45.8721C95.1241 46.0285 95.5971 46.0806 96.0701 46.0806C96.7007 46.0806 97.1212 45.82 97.1212 45.403C97.1212 44.3083 94.546 44.7253 94.546 43.0051C94.546 42.2232 95.2818 41.5977 96.4905 41.5977C97.0161 41.5977 97.4891 41.6498 97.962 41.8062L97.7518 42.536C97.3314 42.4317 96.911 42.3275 96.4905 42.3275C95.8599 42.3275 95.5971 42.5881 95.5971 42.953C95.5971 43.9434 98.1723 43.5264 98.1723 45.2987C98.1723 46.0285 97.4891 46.7583 96.0701 46.7583C95.492 46.7583 94.9664 46.6541 94.3883 46.4977L94.5986 45.8721Z" fill="white"/>
<path d="M99.6964 45.8721C100.222 46.0285 100.695 46.0806 101.168 46.0806C101.799 46.0806 102.219 45.82 102.219 45.403C102.219 44.3083 99.6438 44.7253 99.6438 43.0051C99.6438 42.2232 100.38 41.5977 101.588 41.5977C102.114 41.5977 102.587 41.6498 103.06 41.8062L102.85 42.536C102.429 42.4317 102.009 42.3275 101.588 42.3275C100.958 42.3275 100.695 42.5881 100.695 42.953C100.695 43.9434 103.27 43.5264 103.27 45.2987C103.27 46.0285 102.587 46.7583 101.168 46.7583C100.59 46.7583 100.064 46.6541 99.4861 46.4977L99.6964 45.8721Z" fill="white"/>
<path d="M108.158 40.2427H112.309V41.0767H109.209V43.1097H111.836L111.784 43.8916H109.209V45.9767H112.415V46.7586H108.158V40.2427Z" fill="white"/>
<path d="M114.359 43.6829C114.359 42.3797 115.358 41.6499 116.566 41.6499C117.775 41.6499 118.774 42.3797 118.774 43.6829V46.7584H117.723V43.735C117.723 42.901 117.25 42.4318 116.514 42.4318C115.831 42.4318 115.305 42.8488 115.305 43.735V46.7584H114.254V43.6829H114.359Z" fill="white"/>
<path d="M122.558 48.1657C123.504 48.1657 123.924 47.853 123.924 47.4881C123.924 46.654 121.086 47.1753 121.086 45.9243C121.086 45.7158 121.244 45.5072 121.454 45.3509C120.928 45.0381 120.561 44.5689 120.561 43.8913V43.3179C120.561 42.2753 121.454 41.5977 122.61 41.5977C122.926 41.5977 123.188 41.6498 123.399 41.7019L125.08 41.5977L125.028 42.2232L124.239 42.2753C124.502 42.536 124.607 42.9009 124.607 43.3179V43.8913C124.607 44.9338 123.766 45.6115 122.558 45.6115C122.4 45.6115 122.242 45.6115 122.085 45.5594C121.98 45.6115 121.927 45.7157 121.927 45.7679C121.927 46.237 124.87 45.9243 124.87 47.3838C124.87 48.2179 124.029 48.8434 122.453 48.8434C121.612 48.8434 120.823 48.6349 120.193 48.3743L120.508 47.6445C121.244 48.0094 121.874 48.1657 122.558 48.1657ZM123.609 43.9434V43.37C123.609 42.8487 123.293 42.4317 122.558 42.4317C121.822 42.4317 121.507 42.8487 121.507 43.37V43.9434C121.507 44.4647 121.822 44.8817 122.558 44.8817C123.346 44.8817 123.609 44.5168 123.609 43.9434Z" fill="white"/>
<path d="M126.604 39.7734L127.655 39.5649V46.7586H126.604V39.7734Z" fill="white"/>
<path d="M132.753 45.8721C133.279 46.0285 133.752 46.0806 134.225 46.0806C134.855 46.0806 135.276 45.82 135.276 45.403C135.276 44.3083 132.701 44.7253 132.701 43.0051C132.701 42.2232 133.437 41.5977 134.645 41.5977C135.171 41.5977 135.644 41.6498 136.117 41.8062L135.907 42.536C135.486 42.4317 135.066 42.3275 134.645 42.3275C134.015 42.3275 133.752 42.5881 133.752 42.953C133.752 43.9434 136.327 43.5264 136.327 45.2987C136.327 46.0285 135.644 46.7583 134.225 46.7583C133.647 46.7583 133.121 46.6541 132.543 46.4977L132.753 45.8721Z" fill="white"/>
<path d="M138.061 39.7212H139.112V42.0148C139.428 41.8584 139.901 41.6499 140.426 41.6499C141.582 41.6499 142.528 42.2233 142.528 43.6308V46.7584H141.477V43.6829C141.477 42.6925 141.004 42.4318 140.321 42.4318C139.901 42.4318 139.48 42.5882 139.06 42.7446V46.7063H138.009V39.7212H138.061Z" fill="white"/>
<path d="M43.4628 41.8066H42.4117V46.7588H43.4628V41.8066Z" fill="white"/>
<path d="M43.5153 40.5553C43.5153 40.8681 43.2526 41.1287 42.9372 41.1287C42.6219 41.1287 42.3591 40.8681 42.3591 40.5553C42.3591 40.2426 42.6219 39.9819 42.9372 39.9819C43.2526 39.9819 43.5153 40.2426 43.5153 40.5553Z" fill="white"/>
<path d="M80.0935 41.8066H79.0424V46.7588H80.0935V41.8066Z" fill="white"/>
<path d="M80.146 40.5553C80.146 40.8681 79.8832 41.1287 79.5678 41.1287C79.2525 41.1287 78.9897 40.8681 78.9897 40.5553C78.9897 40.2426 79.2525 39.9819 79.5678 39.9819C79.8832 39.9819 80.146 40.2426 80.146 40.5553Z" fill="white"/>
<path d="M130.809 41.8066H129.758V46.7588H130.809V41.8066Z" fill="white"/>
<path d="M130.861 40.5553C130.861 40.8681 130.599 41.1287 130.283 41.1287C129.968 41.1287 129.705 40.8681 129.705 40.5553C129.705 40.2426 129.968 39.9819 130.283 39.9819C130.599 39.9819 130.861 40.2426 130.861 40.5553Z" fill="white"/>
<path d="M21.8102 11.2596C19.3927 8.96603 16.2394 7.76709 12.9285 7.76709C9.61752 7.76709 6.46423 9.01816 4.04671 11.2596C1.47153 13.7096 0 16.9937 0 20.5384C0 23.9788 1.36643 27.2107 3.8365 29.6607C5.15037 30.9118 5.88613 32.7362 5.88613 34.5607V36.1767H7.83065V34.5607C7.83065 32.215 6.88467 29.9214 5.20292 28.2533C3.10073 26.2203 1.94452 23.4575 1.94452 20.5384C1.94452 17.515 3.15328 14.7522 5.36058 12.6671C7.41022 10.7384 10.0905 9.69582 12.8759 9.69582C15.7139 9.69582 18.3416 10.7384 20.3912 12.6671C22.5985 14.7522 23.8073 17.515 23.8073 20.5384C23.8073 23.4575 22.6511 26.2203 20.5489 28.2533C18.8672 29.8692 17.9212 32.1628 17.9212 34.5607V36.1767H19.8657V34.5607C19.8657 32.7362 20.6015 30.9118 21.9153 29.6607C24.3854 27.2107 25.7518 23.9788 25.7518 20.5384C25.8044 16.9937 24.3854 13.7096 21.8102 11.2596Z" fill="white"/>
<path d="M2.18287 3.35049L0.812073 4.4043L4.09597 8.60688L5.46677 7.55307L2.18287 3.35049Z" fill="white"/>
<path d="M23.7114 3.33063L20.4276 7.5332L21.7984 8.58701L25.0822 4.38444L23.7114 3.33063Z" fill="white"/>
</svg>
