<svg width="53" height="53" viewBox="0 0 53 53" fill="none" xmlns="http://www.w3.org/2000/svg">
<g clip-path="url(#clip0)">
<path d="M17.1976 21.4929C16.8882 22.8471 16.8794 24.2297 17.1714 25.6024C17.1778 25.6322 17.1829 25.6623 17.1867 25.6926C17.2786 26.4163 17.8996 26.9621 18.6311 26.9621C19.3956 26.9621 20.0243 26.3704 20.0833 25.6211C20.0792 25.5832 20.0772 25.5447 20.0772 25.5056C20.0772 25.3943 20.0638 25.2815 20.0375 25.1708C19.7607 24.0114 19.8034 22.7958 20.1614 21.6567C20.3437 21.0769 20.9614 20.7544 21.5412 20.9368C22.1211 21.119 22.4434 21.7367 22.2612 22.3166C22.0225 23.0762 21.9939 23.8869 22.1788 24.6608C22.2308 24.8797 22.2626 25.1018 22.2737 25.3241C22.2837 25.3831 22.289 25.4438 22.289 25.5055C22.289 27.5224 20.6481 29.1631 18.6312 29.1631C16.8106 29.1631 15.2624 27.8146 15.0099 26.0183C14.6599 24.3444 14.6741 22.657 15.052 21.0025C15.1874 20.4101 15.7777 20.0395 16.37 20.1747C16.9623 20.3103 17.3329 20.9004 17.1976 21.4929ZM33.4445 44.6738C32.8455 44.5728 32.2774 44.976 32.1759 45.5755C32.0745 46.1748 32.4781 46.7428 33.0776 46.8441C36.4757 47.4188 37.7649 48.1992 38.0596 48.5283C37.8622 48.7413 37.0764 49.3775 34.4005 49.9658C31.9567 50.5031 28.7887 50.7989 25.48 50.7989C21.6903 50.7989 18.0768 50.4067 15.5659 49.7226C13.6756 49.2077 13.0694 48.7115 12.8999 48.5283C13.1944 48.1992 14.4833 47.4187 17.8822 46.844C18.4815 46.7426 18.8852 46.1746 18.7839 45.5753C18.6827 44.976 18.1141 44.572 17.5153 44.6736C12.9623 45.4435 10.6537 46.7418 10.6537 48.5323C10.6537 49.9679 12.0713 51.0518 14.9874 51.8463C17.6788 52.5795 21.5032 53 25.48 53C29.232 53 32.7719 52.6385 35.4475 51.9821C38.7167 51.1801 40.3058 50.0517 40.3058 48.5325C40.3061 46.742 37.9975 45.4438 33.4445 44.6738ZM29.1373 45.2201V45.4022C29.1373 47.419 27.4967 49.0596 25.4799 49.0596C23.4632 49.0596 21.8225 47.419 21.8225 45.4022V45.2201C21.8225 43.2035 23.4631 41.5627 25.4799 41.5627C27.4965 41.5627 29.1373 43.2035 29.1373 45.2201ZM26.9363 45.2201C26.9363 44.4171 26.2829 43.7638 25.4799 43.7638C24.6769 43.7638 24.0235 44.4171 24.0235 45.2201V45.4022C24.0235 46.2052 24.6769 46.8586 25.4799 46.8586C26.2829 46.8586 26.9363 46.2052 26.9363 45.4022V45.2201ZM30.2299 26.0339C29.6097 26.9999 28.6593 27.6771 27.5436 27.9459C27.5406 27.9466 27.5375 27.9474 27.5345 27.9481C25.5591 28.4206 23.891 29.6254 22.8375 31.3404C21.7786 33.0638 21.4537 35.095 21.9221 37.0584C22.3203 38.7376 23.8245 39.8717 25.48 39.8717C25.7582 39.8717 26.0408 39.8396 26.323 39.7728C27.2733 39.5476 28.079 38.9658 28.5917 38.1346C29.1043 37.3034 29.2626 36.3224 29.0372 35.3705C29.0156 35.2802 29.0418 35.2112 29.0675 35.1693C29.0915 35.1302 29.1438 35.062 29.2247 35.0426C29.2305 35.0412 29.2376 35.0394 29.2448 35.0374C32.2498 34.3144 34.8012 32.4819 36.4422 29.8711C36.4657 29.8406 36.4876 29.8088 36.5079 29.7758C38.1256 27.1427 38.634 24.0272 37.9393 21.0032C37.8032 20.4108 37.2133 20.0412 36.6203 20.177C36.0279 20.3131 35.658 20.9036 35.7941 21.4961C36.351 23.9202 35.9575 26.4155 34.6864 28.5349C34.6657 28.5623 34.6464 28.5907 34.6282 28.6201C33.2951 30.787 31.1965 32.3069 28.719 32.9001C28.713 32.9016 28.7055 32.9034 28.698 32.9053C28.0727 33.0589 27.5385 33.4532 27.1921 34.0168C26.848 34.5767 26.7429 35.2387 26.8957 35.8793C26.9853 36.2575 26.9223 36.6481 26.7182 36.979C26.5143 37.3099 26.1936 37.5414 25.8157 37.6309C25.0349 37.8159 24.2489 37.3312 24.0635 36.5489C23.731 35.1557 23.9617 33.7152 24.7131 32.4924C25.4574 31.2806 26.6376 30.4279 28.0375 30.0907C28.0406 30.09 28.0438 30.0892 28.0468 30.0885C29.7672 29.6775 31.2256 28.6194 32.1535 27.1092C32.1541 27.1081 32.1592 27.0998 32.1598 27.0987C32.1799 27.0657 32.1981 27.0322 32.2143 26.9981C33.0906 25.5151 33.3594 23.7861 32.9681 22.1065L32.9548 22.0516C32.924 21.9242 32.8879 21.7932 32.8478 21.6625C32.6691 21.0815 32.0537 20.7553 31.4724 20.9339C30.8914 21.1125 30.5653 21.7283 30.7438 22.3092C30.771 22.3976 30.7951 22.4853 30.8159 22.5709L30.827 22.6163C31.0923 23.7557 30.8974 24.9385 30.2779 25.9468C30.2605 25.9755 30.2446 26.0044 30.2299 26.0339ZM44.7275 13.6065C44.7275 15.4242 42.765 16.8699 38.8945 17.9033C35.5696 18.7911 31.1679 19.28 26.5 19.28C21.8321 19.28 17.4304 18.791 14.1056 17.9033C10.235 16.8698 8.27255 15.4242 8.27255 13.6065C8.27255 11.9521 9.90231 10.6042 13.1189 9.59546L14.344 2.46454C14.5284 1.3919 15.3784 0.10428 18.3806 0.0606256C20.053 0.0362918 22.017 0.361192 23.7505 0.647818C24.8712 0.833073 25.9298 1.00806 26.5 1.00806C27.1893 1.00806 28.3381 0.808005 29.5544 0.596215C32.4954 0.0841035 35.8288 -0.496485 37.5612 0.725344C38.1537 1.14305 38.5323 1.74443 38.656 2.46454L39.8811 9.59559C43.0977 10.6043 44.7275 11.9522 44.7275 13.6065ZM42.5264 13.6065C42.5264 13.418 41.9904 12.6159 39.5251 11.7936C36.1761 12.783 31.458 13.3478 26.5 13.3478C23.4032 13.3478 20.3563 13.1274 17.6889 12.7104C17.0884 12.6165 16.6776 12.0537 16.7716 11.4532C16.8655 10.8525 17.4282 10.4413 18.0288 10.5358C20.5857 10.9355 23.515 11.1468 26.4998 11.1468C30.6897 11.1468 34.6743 10.7343 37.7171 9.99948L36.4866 2.83725C36.4614 2.69101 36.409 2.60614 36.2928 2.52421C35.3065 1.82868 32.072 2.39191 29.9318 2.76474C28.5621 3.00319 27.3793 3.20923 26.4998 3.20923C25.7489 3.20923 24.6565 3.02862 23.3913 2.8194C21.8033 2.55686 20.0104 2.26046 18.5603 2.26046C18.5105 2.26046 18.4613 2.26082 18.4126 2.26156C17.9892 2.26767 16.601 2.32747 16.5132 2.83738L15.1722 10.6423C15.1003 11.0609 14.794 11.4007 14.385 11.5155C11.1372 12.4272 10.4735 13.3969 10.4735 13.6066C10.4735 13.8282 11.1863 14.8458 14.6732 15.777C17.8182 16.6167 22.0182 17.0792 26.4998 17.0792C30.9814 17.0792 35.1816 16.6167 38.3265 15.777C41.8137 14.8457 42.5264 13.8281 42.5264 13.6065Z" fill="#384158"/>
</g>
<defs>
<clipPath id="clip0">
<rect width="53" height="53" fill="white"/>
</clipPath>
</defs>
</svg>
