<svg width="53" height="53" viewBox="0 0 53 53" fill="none" xmlns="http://www.w3.org/2000/svg">
<path d="M49.3783 46.0137C50.0034 45.2406 50.3461 44.2775 50.35 43.2833V41.5166C50.35 39.0774 48.3725 37.1 45.9333 37.1C43.4941 37.1 41.5167 39.0774 41.5167 41.5166V43.2833C41.5205 44.2775 41.8633 45.2406 42.4883 46.0137C41.3916 46.2176 40.4129 46.8301 39.75 47.7274C39.0871 46.8301 38.1084 46.2176 37.0117 46.0137C37.6367 45.2406 37.9795 44.2775 37.9833 43.2833V41.5166C37.9833 39.0774 36.0059 37.1 33.5667 37.1C31.1274 37.1 29.15 39.0774 29.15 41.5166V43.2833C29.1539 44.2775 29.4966 45.2406 30.1217 46.0137C29.0249 46.2176 28.0463 46.8301 27.3833 47.7274C26.7204 46.8301 25.7418 46.2176 24.645 46.0137C25.2701 45.2406 25.6128 44.2775 25.6167 43.2833V41.5166C25.6167 39.0774 23.6392 37.1 21.2 37.1C18.7608 37.1 16.7833 39.0774 16.7833 41.5166V43.2833C16.7872 44.2775 17.1299 45.2406 17.755 46.0137C15.6603 46.397 14.1373 48.2205 14.1333 50.35V53H15.9V50.35C15.9 48.8864 17.0864 47.7 18.55 47.7H23.85C25.3136 47.7 26.5 48.8864 26.5 50.35V53H28.2667V50.35C28.2667 48.8864 29.4531 47.7 30.9167 47.7H36.2167C37.6802 47.7 38.8667 48.8864 38.8667 50.35V53H40.6333V50.35C40.6333 48.8864 41.8198 47.7 43.2833 47.7H48.5833C50.0469 47.7 51.2333 48.8864 51.2333 50.35V53H53V50.35C52.996 48.2205 51.473 46.397 49.3783 46.0137ZM23.85 43.2833C23.85 44.7469 22.6636 45.9333 21.2 45.9333C19.7364 45.9333 18.55 44.7469 18.55 43.2833V41.5166C18.55 40.0531 19.7364 38.8666 21.2 38.8666C22.6636 38.8666 23.85 40.0531 23.85 41.5166V43.2833ZM36.2167 43.2833C36.2167 44.7469 35.0302 45.9333 33.5667 45.9333C32.1031 45.9333 30.9167 44.7469 30.9167 43.2833V41.5166C30.9167 40.0531 32.1031 38.8666 33.5667 38.8666C35.0302 38.8666 36.2167 40.0531 36.2167 41.5166V43.2833ZM48.5833 43.2833C48.5833 44.7469 47.3969 45.9333 45.9333 45.9333C44.4698 45.9333 43.2833 44.7469 43.2833 43.2833V41.5166C43.2833 40.0531 44.4698 38.8666 45.9333 38.8666C47.3969 38.8666 48.5833 40.0531 48.5833 41.5166V43.2833Z" fill="#384158"/>
<path d="M21.5231 17.7283C21.4202 17.6877 21.3106 17.6668 21.2 17.6667H17.6667C17.2952 17.6666 16.9634 17.8989 16.8363 18.2479L15.9 20.8229L15.8691 20.7389C15.1949 18.8974 13.4444 17.6711 11.4833 17.6667H11.4604C12.0449 16.9067 12.3635 15.9756 12.3667 15.0167V13.25C12.3667 10.8108 10.3892 8.83337 7.94999 8.83337C5.51077 8.83337 3.53332 10.8108 3.53332 13.25V15.0167C3.53652 15.9756 3.85507 16.9067 4.43962 17.6667H4.41665C1.97865 17.6696 0.00285557 19.6454 -1.52588e-05 22.0834V32.6834C-1.52588e-05 33.1712 0.395497 33.5667 0.883318 33.5667H3.53332V42.135L1.91505 44.5598C1.64431 44.9656 1.75373 45.5141 2.15962 45.7849C2.30482 45.8817 2.47542 45.9334 2.64999 45.9334H13.25C13.7378 45.9335 14.1334 45.538 14.1334 45.0502C14.1334 44.8756 14.0818 44.705 13.9849 44.5598L12.3667 42.135V25.8252L12.5893 26.2668C13.4819 28.0508 15.6515 28.7735 17.4356 27.8809C18.2261 27.4854 18.8441 26.8136 19.1727 25.993L20.6073 22.4076L22.0206 18.8742C22.1997 18.4204 21.9769 17.9074 21.5231 17.7283ZM5.29999 13.25C5.29999 11.7865 6.48641 10.6 7.94999 10.6C9.41356 10.6 10.6 11.7865 10.6 13.25V15.0167C10.6 16.4803 9.41356 17.6667 7.94999 17.6667C6.48641 17.6667 5.29999 16.4803 5.29999 15.0167V13.25ZM3.53332 31.8H1.76665V30.0334H3.53332V31.8ZM8.83332 44.1667V33.5667H7.06665V44.1667H4.30094L5.15159 42.8903C5.24809 42.745 5.29965 42.5745 5.29999 42.4V31.8H10.6V42.4C10.6003 42.5745 10.6519 42.745 10.7484 42.8903L11.599 44.1667H8.83332ZM17.5324 25.3411C17.1532 26.287 16.079 26.7466 15.133 26.3674C14.7142 26.1996 14.3715 25.8841 14.1695 25.4807L12.2783 21.6885C12.0658 21.2494 11.5374 21.0658 11.0983 21.2784C10.7902 21.4276 10.5961 21.7412 10.6 22.0834V30.0334H5.29999V22.0834C5.29999 21.5956 4.90447 21.2 4.41665 21.2C3.92883 21.2 3.53332 21.5956 3.53332 22.0834V28.2667H1.76665V22.0834C1.76665 20.6198 2.95308 19.4334 4.41665 19.4334H7.06665V28.2667H8.83332V19.4334H11.4833C12.7019 19.4358 13.7897 20.1978 14.2084 21.3423L15.0697 23.7105C15.2361 24.169 15.7428 24.4059 16.2013 24.2395C16.4473 24.1503 16.641 23.9565 16.7303 23.7105L17.0006 22.9667H18.482L17.5324 25.3411ZM19.1886 21.2H17.6428L18.285 19.4334H19.8953L19.1886 21.2Z" fill="#384158"/>
<path d="M52.1167 5.3C52.6045 5.3 53 4.90449 53 4.41667V0.883333C53 0.395512 52.6045 0 52.1167 0H15.0167C14.5288 0 14.1333 0.395512 14.1333 0.883333V4.41667C14.1333 4.90449 14.5288 5.3 15.0167 5.3H15.9V15.9H17.6667V5.3H49.4667V24.7333H21.2V26.5H32.6833V30.4043L26.9417 33.6833L27.8179 35.2167L32.6833 32.4387V35.3333H34.45V32.4387L39.3083 35.2167L40.1846 33.6833L34.45 30.4043V26.5H53V24.7333H51.2333V5.3H52.1167ZM15.9 3.53333V1.76667H51.2333V3.53333H15.9Z" fill="#384158"/>
<path d="M43.498 9.74314L39.9646 8.8598L39.5353 10.5735L41.1898 10.9869L34.4853 15.68L30.5854 12.5601C30.2766 12.3134 29.8415 12.3018 29.5201 12.5318L23.3368 16.9485L24.3632 18.3848L30.0033 14.3568L33.8979 17.4732C34.2044 17.7189 34.6364 17.7326 34.9579 17.5068L42.4 12.2969V14.1333H44.1666V10.6C44.1666 10.1949 43.8909 9.84163 43.498 9.74314Z" fill="#384158"/>
</svg>
