<svg width="53" height="53" viewBox="0 0 53 53" fill="none" xmlns="http://www.w3.org/2000/svg">
<path d="M49.6875 0.828125H13.25C11.8803 0.828125 10.7656 1.94278 10.7656 3.3125V17.4585C8.78889 18.6063 7.45312 20.742 7.45312 23.1875C7.45312 26.0462 8.67875 28.726 10.8103 30.615C11.0878 33.1904 12.6836 35.3709 14.9062 36.4797V38.2668L9.12759 39.6266C4.24166 40.7752 0.828125 45.0848 0.828125 50.1049V52.1719H35.6094V50.1049C35.6094 46.0164 33.3453 42.4008 29.8663 40.5781H40.5781V48.0312C40.5781 50.3144 42.4356 52.1719 44.7188 52.1719C47.0019 52.1719 48.8594 50.3144 48.8594 48.0312V40.5781H49.6875C51.0572 40.5781 52.1719 39.4635 52.1719 38.0938V3.3125C52.1719 1.94278 51.0572 0.828125 49.6875 0.828125ZM13.25 2.48438H49.6875C50.1438 2.48438 50.5156 2.8562 50.5156 3.3125V7.45312H12.4219V3.3125C12.4219 2.8562 12.7937 2.48438 13.25 2.48438ZM9.10938 23.1875C9.10938 20.4472 11.3379 18.2188 14.0781 18.2188H17.013C18.5119 18.2188 19.981 17.7028 21.152 16.767L22.9672 15.3145C23.4442 16.1675 24.0156 17.389 24.0156 18.2188C24.0156 19.4535 22.5937 20.7031 19.875 20.7031V22.3594C23.1146 22.3594 24.9191 20.9391 25.4797 19.3359C26.6242 20.2684 27.3281 21.6778 27.3281 23.1875C27.3281 25.0003 26.7352 26.7277 25.6719 28.1455V26.0984C25.6719 24.4935 24.3659 23.1875 22.7602 23.1875C22.3884 23.1875 22.0248 23.2571 21.6787 23.3954C19.4485 24.2881 16.9898 24.2889 14.7572 23.3954C14.4127 23.2571 14.0491 23.1875 13.6773 23.1875C12.0716 23.1875 10.7656 24.4935 10.7656 26.0992V28.1463C9.70231 26.7277 9.10938 25.0003 9.10938 23.1875ZM12.4219 29.8125V26.0992C12.4219 25.4069 12.985 24.8438 13.6773 24.8438C13.838 24.8438 13.9945 24.8744 14.1435 24.9332C16.7728 25.9857 19.6671 25.9849 22.2948 24.9332C22.443 24.8744 22.6004 24.8438 22.7602 24.8438C23.4525 24.8438 24.0156 25.4069 24.0156 26.0992V29.8125C24.0156 33.0091 21.4153 35.6094 18.2188 35.6094C15.0222 35.6094 12.4219 33.0091 12.4219 29.8125ZM21.1023 39.8668L21.4137 39.9396L20.8986 44.5713L19.2614 42.9341L21.1023 39.8668ZM18.2188 37.2656C18.7885 37.2656 19.3417 37.1952 19.875 37.0735V38.6925L18.2188 41.4526L16.5625 38.6925V37.0735C17.0958 37.1952 17.649 37.2656 18.2188 37.2656ZM15.3352 39.8668L17.1761 42.935L15.5389 44.5722L15.0238 39.9405L15.3352 39.8668ZM33.9531 50.1049V50.5156H28.9844V47.2031H27.3281V50.5156H9.10938V47.2031H7.45312V50.5156H2.48438V50.1049C2.48438 45.8566 5.37205 42.2104 9.50688 41.2373L13.3999 40.3214L14.2727 48.1787L18.2188 44.2335L22.1639 48.1787L23.0368 40.3214L26.9298 41.2373C31.0655 42.2112 33.9531 45.8574 33.9531 50.1049ZM47.2031 30.6406V43.8906H45.5469V30.6406H47.2031ZM42.9532 28.9844L44.7188 26.3369L46.4843 28.9844H42.9532ZM42.2344 30.6406H43.8906V43.8906H42.2344V30.6406ZM44.7188 50.5156C43.349 50.5156 42.2344 49.401 42.2344 48.0312V45.5469H47.2031V48.0312C47.2031 49.401 46.0885 50.5156 44.7188 50.5156ZM49.6875 38.9219H48.8594V29.5616L44.7188 23.3506L40.5781 29.5616V38.9219H24.3187L21.5312 38.266V36.4789C23.7531 35.37 25.3497 33.1896 25.6272 30.6141C27.7587 28.726 28.9844 26.0462 28.9844 23.1875C28.9844 20.7909 27.6577 18.5831 25.5849 17.4196C25.2504 15.722 24.0347 13.857 23.8765 13.6193L23.3755 12.8674L20.1176 15.4743C19.2398 16.1758 18.1376 16.5625 17.013 16.5625H14.0781C13.5051 16.5625 12.9527 16.6428 12.4219 16.7803V9.10938H50.5156V38.0938C50.5156 38.55 50.1438 38.9219 49.6875 38.9219Z" fill="#384158"/>
<path d="M17.3906 47.2031H19.0469V48.8594H17.3906V47.2031Z" fill="#384158"/>
<path d="M20.7031 4.14062H22.3594V5.79688H20.7031V4.14062Z" fill="#384158"/>
<path d="M14.0781 4.14062H15.7344V5.79688H14.0781V4.14062Z" fill="#384158"/>
<path d="M17.3906 4.14062H19.0469V5.79688H17.3906V4.14062Z" fill="#384158"/>
<path d="M20.7031 10.7656H22.3594V12.4219H20.7031V10.7656Z" fill="#384158"/>
<path d="M17.3906 10.7656H19.0469V12.4219H17.3906V10.7656Z" fill="#384158"/>
<path d="M14.0781 10.7656H15.7344V12.4219H14.0781V10.7656Z" fill="#384158"/>
<path d="M30.6406 22.3594H48.8594V10.7656H30.6406V22.3594ZM32.2969 12.4219H47.2031V20.7031H32.2969V12.4219Z" fill="#384158"/>
<path d="M33.9531 14.0781H45.5469V15.7344H33.9531V14.0781Z" fill="#384158"/>
<path d="M33.9531 17.3906H45.5469V19.0469H33.9531V17.3906Z" fill="#384158"/>
<path d="M30.6406 24.0156H38.9219V25.6719H30.6406V24.0156Z" fill="#384158"/>
<path d="M30.6406 27.3281H38.9219V28.9844H30.6406V27.3281Z" fill="#384158"/>
<path d="M27.3281 30.6406H38.9219V32.2969H27.3281V30.6406Z" fill="#384158"/>
<path d="M27.3281 33.9531H35.6094V35.6094H27.3281V33.9531Z" fill="#384158"/>
<path d="M37.2656 33.9531H38.9219V35.6094H37.2656V33.9531Z" fill="#384158"/>
</svg>
