<svg width="14" height="14" viewBox="0 0 14 14" fill="none" xmlns="http://www.w3.org/2000/svg">
<path d="M13.6961 6.37211C13.9717 6.10355 14.069 5.7094 13.9501 5.343C13.831 4.9766 13.5206 4.71504 13.1394 4.65954L9.74955 4.16699C9.60518 4.14596 9.48043 4.05541 9.41595 3.9245L7.90045 0.853131C7.73028 0.508036 7.38491 0.293579 7.00001 0.293579C6.61539 0.293579 6.27001 0.508036 6.09985 0.853131L4.58407 3.92478C4.51959 4.05569 4.39456 4.14624 4.25019 4.16727L0.860361 4.65982C0.479384 4.71504 0.168771 4.97688 0.0496281 5.34328C-0.0692345 5.70968 0.0280422 6.10383 0.303613 6.37239L2.75628 8.7631C2.86084 8.86514 2.90878 9.01204 2.88411 9.15557L2.3055 12.5314C2.25419 12.8285 2.33213 13.1176 2.52444 13.3455C2.82328 13.7007 3.34498 13.8089 3.76212 13.5897L6.79368 11.9957C6.92039 11.9292 7.0799 11.9298 7.20634 11.9957L10.2382 13.5897C10.3856 13.6673 10.5429 13.7066 10.7052 13.7066C11.0015 13.7066 11.2824 13.5748 11.4756 13.3455C11.6682 13.1176 11.7458 12.828 11.6945 12.5314L11.1156 9.15557C11.091 9.01176 11.1389 8.86514 11.2435 8.7631L13.6961 6.37211Z" fill="#FFD600"/>
</svg>
