<svg width="18" height="16" viewBox="0 0 18 16" fill="none" xmlns="http://www.w3.org/2000/svg">
<g clip-path="url(#clip0)">
<path d="M4.08518 15.9995V5.20434H0.226673V15.9995H4.08518ZM2.15642 3.72956C3.50195 3.72956 4.33948 2.90062 4.33948 1.86471C4.31441 0.805448 3.502 -0.000488281 2.18196 -0.000488281C0.862118 -0.000488281 -0.000976562 0.805464 -0.000976562 1.86471C-0.000976562 2.90066 0.836343 3.72956 2.13123 3.72956H2.1563H2.15642ZM6.22084 15.9995H10.0793V9.97097C10.0793 9.64833 10.1044 9.32602 10.2063 9.09538C10.4852 8.45076 11.1201 7.78311 12.186 7.78311C13.5822 7.78311 14.1408 8.77306 14.1408 10.2243V15.9994H17.9991V9.80959C17.9991 6.49374 16.0955 4.9509 13.5568 4.9509C11.4753 4.9509 10.5614 6.03286 10.0537 6.76977H10.0794V5.20412H6.22093C6.27157 6.21708 6.22093 15.9993 6.22093 15.9993L6.22084 15.9995Z" fill="black"/>
</g>
<defs>
<clipPath id="clip0">
<rect width="18" height="16" fill="white"/>
</clipPath>
</defs>
</svg>
