<svg width="10" height="6" viewBox="0 0 10 6" fill="none" xmlns="http://www.w3.org/2000/svg">
<g clip-path="url(#clip0)">
<path d="M8.23334 0.967433L5.00001 3.87743L1.76668 0.967433C1.68953 0.897997 1.59793 0.842917 1.49713 0.805339C1.39633 0.76776 1.28829 0.748418 1.17918 0.748418C1.07007 0.748418 0.962029 0.76776 0.861225 0.805339C0.760422 0.842917 0.66883 0.897997 0.591678 0.967433C0.514526 1.03687 0.453326 1.1193 0.411572 1.21003C0.369818 1.30075 0.348327 1.39799 0.348327 1.49618C0.348327 1.59438 0.369818 1.69162 0.411572 1.78234C0.453327 1.87306 0.514527 1.9555 0.591678 2.02493L4.41668 5.46743C4.49377 5.53696 4.58535 5.59212 4.68616 5.62976C4.78697 5.66739 4.89504 5.68677 5.00418 5.68677C5.11332 5.68677 5.22139 5.66739 5.3222 5.62976C5.42301 5.59212 5.51458 5.53696 5.59168 5.46743L9.41668 2.02493C9.74168 1.73243 9.74168 1.25993 9.41668 0.967433C9.09168 0.682433 8.55834 0.674933 8.23334 0.967433Z" fill="#384158"/>
</g>
<defs>
<clipPath id="clip0">
<rect width="6" height="10" fill="white" transform="translate(0 6) rotate(-90)"/>
</clipPath>
</defs>
</svg>
