<svg width="10" height="6" viewBox="0 0 10 6" fill="none" xmlns="http://www.w3.org/2000/svg">
<g clip-path="url(#clip0)">
<path d="M8.23333 0.741663L5 3.975L1.76667 0.741663C1.68952 0.664512 1.59792 0.603312 1.49712 0.561558C1.39632 0.519804 1.28828 0.498313 1.17917 0.498313C1.07006 0.498313 0.962017 0.519804 0.861214 0.561558C0.760411 0.603312 0.668818 0.664512 0.591667 0.741663C0.514515 0.818815 0.453315 0.910407 0.411561 1.01121C0.369807 1.11201 0.348316 1.22005 0.348316 1.32916C0.348316 1.43827 0.369807 1.54631 0.411561 1.64712C0.453315 1.74792 0.514515 1.83951 0.591667 1.91666L4.41667 5.74166C4.49376 5.81892 4.58534 5.88021 4.68615 5.92202C4.78696 5.96384 4.89503 5.98537 5.00417 5.98537C5.11331 5.98537 5.22138 5.96384 5.32219 5.92202C5.423 5.88021 5.51457 5.81892 5.59167 5.74166L9.41667 1.91666C9.74167 1.59166 9.74167 1.06666 9.41667 0.741663C9.09167 0.424996 8.55834 0.416663 8.23333 0.741663Z" fill="#CDCDCD"/>
</g>
<defs>
<clipPath id="clip0">
<rect width="6" height="10" fill="white" transform="translate(0 6) rotate(-90)"/>
</clipPath>
</defs>
</svg>
