<svg width="14" height="14" viewBox="0 0 14 14" fill="none" xmlns="http://www.w3.org/2000/svg">
<g clip-path="url(#clip0)">
<path d="M9.00638 10.2436L6.125 7.36225V3.5H7.875V6.63775L10.2436 9.00638L9.00638 10.2436ZM7 0C5.14348 0 3.36301 0.737498 2.05025 2.05025C0.737498 3.36301 0 5.14348 0 7C0 8.85652 0.737498 10.637 2.05025 11.9497C3.36301 13.2625 5.14348 14 7 14C8.85652 14 10.637 13.2625 11.9497 11.9497C13.2625 10.637 14 8.85652 14 7C14 5.14348 13.2625 3.36301 11.9497 2.05025C10.637 0.737498 8.85652 0 7 0V0ZM7 12.25C6.31056 12.25 5.62787 12.1142 4.99091 11.8504C4.35395 11.5865 3.7752 11.1998 3.28769 10.7123C2.80018 10.2248 2.41347 9.64605 2.14963 9.00909C1.8858 8.37213 1.75 7.68944 1.75 7C1.75 6.31056 1.8858 5.62787 2.14963 4.99091C2.41347 4.35395 2.80018 3.7752 3.28769 3.28769C3.7752 2.80018 4.35395 2.41347 4.99091 2.14963C5.62787 1.8858 6.31056 1.75 7 1.75C8.39239 1.75 9.72774 2.30312 10.7123 3.28769C11.6969 4.27226 12.25 5.60761 12.25 7C12.25 8.39239 11.6969 9.72774 10.7123 10.7123C9.72774 11.6969 8.39239 12.25 7 12.25Z" fill="#C8C8C8"/>
</g>
<defs>
<clipPath id="clip0">
<rect width="14" height="14" fill="white"/>
</clipPath>
</defs>
</svg>
