<svg width="18" height="18" viewBox="0 0 18 18" fill="none" xmlns="http://www.w3.org/2000/svg">
<g clip-path="url(#clip0)">
<path d="M17.9646 3.42734C17.2909 3.7235 16.5773 3.91909 15.8467 4.00784C16.6168 3.54563 17.1934 2.82003 17.4696 1.9654C16.7412 2.38784 15.9484 2.68789 15.1228 2.85359C14.5676 2.26041 13.8322 1.86704 13.0307 1.7345C12.2291 1.60196 11.4062 1.73766 10.6896 2.12056C9.97307 2.50346 9.40291 3.11214 9.06761 3.85217C8.7323 4.5922 8.6506 5.4222 8.83518 6.2134C5.76787 6.06997 3.04875 4.59622 1.23018 2.36984C0.899138 2.93284 0.726001 3.57467 0.728996 4.22778C0.728545 4.83492 0.878027 5.43278 1.16417 5.96826C1.45031 6.50375 1.86425 6.96029 2.36925 7.29734C1.78403 7.27965 1.21157 7.12207 0.699746 6.83778V6.88222C0.699567 7.73442 0.994051 8.56047 1.53329 9.22037C2.07253 9.88026 2.82334 10.3334 3.6585 10.503C3.34214 10.5876 3.01619 10.6308 2.68875 10.6318C2.45193 10.6318 2.22581 10.6088 2.00025 10.5672C2.23792 11.3005 2.69831 11.9415 3.31734 12.4009C3.93638 12.8604 4.68325 13.1154 5.454 13.1305C4.1481 14.1532 2.53675 14.708 0.878058 14.706C0.584268 14.7072 0.290674 14.6907 -0.00112915 14.6565C1.69092 15.7407 3.6587 16.3163 5.66831 16.3148C12.456 16.3148 16.1651 10.6926 16.1651 5.82359C16.1651 5.66834 16.1651 5.51028 16.1533 5.35165C16.8789 4.83165 17.5042 4.18444 17.9989 3.4414L17.9646 3.42734Z" fill="white"/>
</g>
<defs>
<clipPath id="clip0">
<rect width="18" height="18" fill="white"/>
</clipPath>
</defs>
</svg>
