<svg width="18" height="18" viewBox="0 0 18 18" fill="none" xmlns="http://www.w3.org/2000/svg">
<path d="M17.622 4.65241C17.5175 4.27876 17.3183 3.93843 17.0436 3.66437C16.769 3.39031 16.4282 3.19182 16.0543 3.0881C14.6509 2.71291 9.00901 2.71291 9.00901 2.71291C9.00901 2.71291 3.37782 2.70391 1.95976 3.0881C1.58648 3.19227 1.24639 3.39098 0.97236 3.66501C0.698327 3.93904 0.499621 4.27913 0.395445 4.65241C0.128933 6.08916 -0.00232861 7.54772 0.00338299 9.00897C0.000782496 10.4632 0.132023 11.9146 0.395445 13.3447C0.499958 13.7182 0.698723 14.0585 0.97266 14.3331C1.2466 14.6076 1.58651 14.8071 1.95976 14.9124C3.3632 15.2876 9.00901 15.2876 9.00901 15.2876C9.00901 15.2876 14.6368 15.2876 16.0543 14.9124C16.4282 14.8075 16.7687 14.6083 17.0433 14.3337C17.3179 14.0591 17.5171 13.7186 17.622 13.3447C17.8802 11.9154 18.0062 10.4619 17.9972 9.00897C18.0062 7.54647 17.883 6.09072 17.622 4.65241ZM7.20676 11.7017V6.30447L11.9031 9.00897L7.20676 11.7017Z" fill="white"/>
</svg>
